<?xml version="1.0" standalone="no"?><!DOCTYPE svg PUBLIC "-//W3C//DTD SVG 1.1//EN" "http://www.w3.org/Graphics/SVG/1.1/DTD/svg11.dtd"><svg t="1660804787607" class="icon" viewBox="0 0 1024 1024" version="1.1" xmlns="http://www.w3.org/2000/svg" p-id="2587" xmlns:xlink="http://www.w3.org/1999/xlink" width="200" height="200"><defs><style type="text/css">@font-face { font-family: feedback-iconfont; src: url("//at.alicdn.com/t/font_1031158_u69w8yhxdu.woff2?t=1630033759944") format("woff2"), url("//at.alicdn.com/t/font_1031158_u69w8yhxdu.woff?t=1630033759944") format("woff"), url("//at.alicdn.com/t/font_1031158_u69w8yhxdu.ttf?t=1630033759944") format("truetype"); }
</style></defs><path d="M511.92142 1023.873811a1231.682937 1231.682937 0 0 1-337.868137-42.233517C29.947403 938.638895 0 877.720246 0 834.206925s30.203364-104.68793 173.541361-147.433369A1140.816885 1140.816885 0 0 1 460.729278 645.307921l2.559607-22.524542c0-15.101682 0-29.435482 2.303647-44.025242 0-76.788213-51.192142-136.93898-83.187231-136.93898h-3.327489a237.019617 237.019617 0 0 1-93.68162 22.268582 159.207562 159.207562 0 0 1-45.561007-6.399018 127.980355 127.980355 0 0 1-84.722995-76.788213c-16.125525-43.513321-79.859742-63.222295-87.282602-65.269981A51.192142 51.192142 0 0 1 28.155678 271.349324a49.400417 49.400417 0 0 1 37.626224-46.84081 511.92142 511.92142 0 0 1 148.713173-25.596071 238.299421 238.299421 0 0 1 127.980355 32.251049 186.083436 186.083436 0 0 1 86.258759 153.576426A206.816254 206.816254 0 0 1 486.325349 439.25955a6.143057 6.143057 0 0 0 2.815568 1.535764 4.095371 4.095371 0 0 0 3.58345-2.559607 503.474717 503.474717 0 0 1 25.596071-65.781903 324.046259 324.046259 0 0 1 46.328888-72.948802 11.518232 11.518232 0 0 0 0-2.815568 3.327489 3.327489 0 0 0-1.535764-2.559607 168.678108 168.678108 0 0 1-16.893407-12.542075 55.799435 55.799435 0 0 1-20.988778-44.793124c0-5.631136 0-141.290312 106.735616-204.768568A222.685818 222.685818 0 0 1 750.732763 0.030971c67.829588 0 148.713173 24.060307 240.603067 71.413038a57.079238 57.079238 0 0 1-5.119214 103.920049 557.994348 557.994348 0 0 0-174.053283 114.926358 153.576426 153.576426 0 0 1-95.473345 48.632535h-18.685132a204.768568 204.768568 0 0 1-65.525942-11.518232 155.624112 155.624112 0 0 0-54.26367 72.436881 535.725766 535.725766 0 0 0-47.608692 240.347107 1370.413642 1370.413642 0 0 1 318.415123 45.561006c143.593958 42.745439 173.541361 103.920048 173.541362 147.433369s-29.947403 104.43197-173.541362 147.433369A1231.171015 1231.171015 0 0 1 511.92142 1023.873811z m-252.633221-291.795209c-22.780503 4.607293-43.513321 9.982468-61.942492 15.357643-78.835899 23.548385-123.884984 55.287513-123.884983 86.77068S118.509809 897.429221 197.089747 921.489527A1140.816885 1140.816885 0 0 0 511.92142 959.627673 1144.912256 1144.912256 0 0 0 825.217329 921.489527c78.579938-23.292425 123.629023-55.031553 123.629023-86.51472s-45.049085-63.222295-123.629023-86.77068c-18.17321-5.375175-39.161989-10.494389-61.942492-15.357643 0 0-3.839411 0-4.095371 2.047686a3.58345 3.58345 0 0 0 0 4.351332A72.436881 72.436881 0 0 1 788.614948 793.509172c0 80.371663-143.849919 116.718084-277.46141 116.718084S233.692128 873.624875 233.692128 793.509172a71.92496 71.92496 0 0 1 28.6676-54.775592 8.190743 8.190743 0 0 0 0-4.351332 3.58345 3.58345 0 0 0-3.327489-2.047685z m351.434055-429.502071c48.120613-161.767169 210.911625-234.715971 405.185804-181.988065a6.143057 6.143057 0 0 0 7.678821-4.351332 6.399018 6.399018 0 0 0-4.351332-7.934782c-200.161275-54.775592-370.375147 21.75666-420.543446 190.434768a6.143057 6.143057 0 0 0 4.095371 7.934782h1.791725a6.399018 6.399018 0 0 0 6.143057-4.095371z m-204.768568 124.908826a6.399018 6.399018 0 0 0 3.327489-8.446703c-38.138146-89.074327-182.244026-195.809943-382.661261-153.576426a6.399018 6.399018 0 0 0-4.863254 7.678821 6.399018 6.399018 0 0 0 7.422861 4.863253c193.506297-40.185831 332.748923 61.43057 368.583422 146.665487a6.399018 6.399018 0 0 0 5.631136 3.839411z" p-id="2588" fill="#32e0a9"></path></svg>